<?xml version="1.0" encoding="utf-8"?>
<svg version="1.0" xmlns="http://www.w3.org/2000/svg" width="226px" height="219px" viewBox="0 0 226 219" preserveAspectRatio="xMidYMid meet">
 <g fill="#dc3545">
  <path d="M24.50 212.15 c-1.65 -0.30 -13.30 -12 -13.75 -13.80 -0.20 -0.75 -0.20 -1.95 0 -2.70 0.20 -0.90 4.75 -5.85 12.75 -13.90 l12.40 -12.50 -4.20 -7.75 c-9.05 -16.50 -9.40 -17.30 -8.80 -19.40 0.40 -1.35 2.05 -3.35 5.75 -7 4.95 -4.85 5.30 -5.10 7.30 -5.10 2.05 0 2.40 0.25 8.10 5.85 l6 5.85 10.10 -10.10 c5.55 -5.55 10.35 -10.10 10.60 -10.10 0.65 0 30.75 30.10 30.75 30.75 0 0.25 -4.55 5.05 -10.10 10.60 l-10.10 10.15 5.55 5.60 c8 8.15 8 8.75 0.45 16.30 -5.10 5 -5.20 5.10 -7.50 5.10 -2.45 0 -2.40 0.05 -20.50 -9.90 l-5.90 -3.25 -12.60 12.50 c-12.55 12.55 -13.50 13.25 -16.30 12.80z"/>
  <path d="M193.75 211.70 c-0.80 -0.40 -6.90 -6.15 -13.50 -12.75 l-12 -11.95 -12 6.50 c-15.50 8.40 -14.55 8.30 -21.35 1.65 -5.90 -5.75 -6.70 -7.05 -5.95 -9.30 0.40 -1.10 9.05 -10.10 27.70 -28.75 l27.10 -27.10 2.15 0 c2.05 0 2.40 0.25 6.90 4.60 5.50 5.30 6.40 6.75 6.05 9.45 -0.15 1.10 -2.40 5.85 -5.20 11.05 -2.75 5.05 -5.65 10.35 -6.40 11.80 l-1.45 2.65 12.30 12.35 c6.75 6.80 12.55 12.80 12.85 13.40 1.05 2.15 -0.15 4.20 -6.30 10.30 -5.05 5 -7.55 6.90 -9.05 6.90 -0.20 0 -1 -0.35 -1.85 -0.80z"/>
  <path d="M73.65 105.90 l-57.60 -57.65 -2.65 -15.90 c-2.90 -17.55 -2.90 -17.20 0.25 -19.55 l1.35 -1 15.85 2.65 c8.75 1.45 16.20 2.85 16.65 3.05 0.40 0.25 26.50 26.20 58 57.70 l57.25 57.30 -15.50 15.50 c-8.50 8.50 -15.60 15.50 -15.75 15.50 -0.15 0 -26.15 -25.95 -57.85 -57.60z"/>
  <path d="M135.35 87.10 l-15.35 -15.35 27.40 -27.35 27.35 -27.35 15.90 -2.65 c15.05 -2.50 15.95 -2.55 17.25 -1.80 0.75 0.45 1.75 1.50 2.25 2.35 0.90 1.50 0.90 1.70 -1.70 17.40 l-2.65 15.90 -27 27.15 c-14.90 14.90 -27.25 27.10 -27.55 27.10 -0.30 0 -7.40 -6.90 -15.90 -15.40z"/>
 </g>
</svg>