<svg width="10" height="6" viewBox="0 0 10 6" fill="none" xmlns="http://www.w3.org/2000/svg">
  <path id="Chevron" fill-rule="evenodd" clip-rule="evenodd" d="M0.181056 5.81894C-0.0603518 5.57754 -0.0603522 5.18614 0.181056 4.94473L4.38904 0.73675C4.39316 0.73238 4.39736 0.72806 4.40163 0.72379C4.52238 0.60304 4.68066 0.54269 4.83892 0.54273C4.99718 0.54269 5.15546 0.60304 5.27621 0.72379C5.28048 0.72806 5.28468 0.73238 5.2888 0.73675L9.49678 4.94473C9.73819 5.18614 9.73819 5.57754 9.49678 5.81894C9.25537 6.06035 8.86397 6.06035 8.62257 5.81894L4.83892 2.0353L1.05527 5.81894C0.813864 6.06035 0.422464 6.06035 0.181056 5.81894Z" fill="#000"/>
</svg>