<svg
  width="10"
  height="6"
  viewBox="0 0 10 6"
  fill="none"
  xmlns="http://www.w3.org/2000/svg"
>
  <path
    id="Chevron"
    fill-rule="evenodd"
    clip-rule="evenodd"
    d="M0.181056 0.181056C-0.0603518 0.422464 -0.0603522 0.813864 0.181056 1.05527L4.38904 5.26325C4.39316 5.26762 4.39736 5.27194 4.40163 5.27621C4.52238 5.39696 4.68066 5.45731 4.83892 5.45727C4.99718 5.45731 5.15546 5.39696 5.27621 5.27621C5.28048 5.27194 5.28468 5.26762 5.2888 5.26325L9.49678 1.05527C9.73819 0.813864 9.73819 0.422464 9.49678 0.181056C9.25537 -0.060352 8.86397 -0.060352 8.62257 0.181056L4.83892 3.9647L1.05527 0.181056C0.813864 -0.060352 0.422464 -0.060352 0.181056 0.181056Z"
    fill="#000"
  />
</svg>
